<svg xmlns="http://www.w3.org/2000/svg" xmlns:xlink="http://www.w3.org/1999/xlink" width="500" zoomAndPan="magnify" viewBox="0 0 375 374.999991" height="500" preserveAspectRatio="xMidYMid meet" version="1.2"><metadata><ContainsAiGeneratedContent>Yes</ContainsAiGeneratedContent></metadata><defs><clipPath id="6deb8493e3"><path d="M 33.492188 21 L 337.242188 21 L 337.242188 351 L 33.492188 351 Z M 33.492188 21 "/></clipPath></defs><g id="ca8dc6d527"><g clip-rule="nonzero" clip-path="url(#6deb8493e3)"><path style=" stroke:none;fill-rule:nonzero;fill:#000000;fill-opacity:1;" d="M 292.769531 65.582031 C 264.082031 36.882812 225.941406 21.078125 185.375 21.078125 C 144.808594 21.078125 106.664062 36.882812 77.980469 65.582031 C 49.292969 94.273438 33.492188 132.425781 33.492188 173.011719 C 33.492188 173.484375 33.59375 175.234375 33.640625 175.710938 C 35.675781 195.367188 42.601562 214.640625 54.355469 230.605469 C 66.375 246.933594 80.582031 257.597656 96.378906 264.8125 C 90.988281 275.019531 85.664062 285.257812 80.441406 295.546875 C 75.289062 305.695312 70.191406 315.882812 65.335938 326.179688 C 62.515625 332.105469 59.792969 338.078125 57.214844 344.109375 C 54.582031 350.28125 63.570312 353.769531 66.15625 347.789062 C 68.609375 342.113281 71.148438 336.472656 73.757812 330.863281 C 83.648438 309.730469 94.855469 289.136719 106.710938 268.984375 C 114.101562 271.613281 121.789062 273.644531 129.71875 275.269531 C 166.074219 282.722656 204.875 277.605469 239.203125 264.046875 C 255.554688 257.589844 272.816406 249.347656 283.683594 234.980469 C 294.414062 220.796875 297.960938 199.386719 285.792969 184.851562 C 280.042969 177.988281 272.238281 173.40625 264.09375 169.917969 C 255.519531 166.242188 246.339844 163.746094 237.058594 162.773438 C 224.246094 161.429688 211.289062 163.019531 199.148438 167.132812 C 218.84375 145.933594 237.035156 123.386719 253.8125 99.753906 C 259.933594 91.132812 268.140625 81.875 267.78125 70.675781 C 267.671875 67.15625 264.164062 65.824219 261.257812 66.746094 C 249.925781 70.324219 240.273438 78.675781 231.496094 86.457031 C 224.054688 93.054688 217.007812 100.097656 210.230469 107.363281 C 194.644531 124.0625 180.367188 141.972656 166.753906 160.304688 C 164.578125 163.230469 162.425781 166.175781 160.28125 169.125 C 164.691406 161.480469 169.128906 153.847656 173.609375 146.246094 C 182.636719 130.917969 191.621094 115.925781 200.929688 101.441406 C 202.132812 99.582031 202.703125 97.304688 201.347656 95.324219 C 200.164062 93.605469 197.539062 92.785156 195.625 93.769531 C 178.410156 102.636719 162.949219 114.957031 149.082031 128.386719 C 145.898438 131.46875 142.796875 134.644531 139.847656 137.957031 C 137.191406 140.9375 133.886719 144.226562 132.074219 147.828125 C 130.03125 151.898438 131.867188 156.761719 136.65625 157.308594 C 140.3125 157.730469 144.351562 156.085938 147.523438 154.445312 C 149.917969 153.203125 151.59375 150.574219 150.664062 147.828125 C 150.09375 146.144531 148.429688 144.914062 146.667969 144.730469 C 148.167969 143.027344 149.699219 141.359375 151.269531 139.726562 C 155.867188 134.925781 160.75 130.40625 165.808594 126.089844 C 171.074219 121.589844 176.546875 117.222656 182.25 113.199219 C 167.3125 137.371094 153.164062 162.050781 139.175781 186.773438 C 126.210938 209.695312 113.453125 232.746094 101.058594 255.984375 C 88 250.117188 76.050781 241.605469 66.25 228.988281 C 59.941406 220.855469 54.425781 212.351562 50.671875 203.007812 C 49.007812 198.863281 47.605469 194.613281 46.460938 190.292969 C 45.324219 186 44.820312 183.535156 44.214844 179.515625 C 43.953125 177.773438 43.59375 173.335938 43.59375 173.011719 C 43.59375 94.808594 107.195312 31.183594 185.375 31.183594 C 263.550781 31.183594 327.15625 94.808594 327.15625 173.011719 C 327.15625 251.21875 263.550781 314.835938 185.375 314.835938 C 182.589844 314.835938 180.324219 317.101562 180.324219 319.890625 C 180.324219 322.675781 182.589844 324.941406 185.375 324.941406 C 225.945312 324.941406 264.082031 309.136719 292.769531 280.4375 C 321.457031 251.742188 337.253906 213.585938 337.253906 173.007812 C 337.253906 132.425781 321.457031 94.273438 292.769531 65.582031 Z M 126.789062 236.054688 C 152.101562 195.738281 179.449219 156.113281 211.191406 120.546875 C 218.421875 112.445312 226.003906 104.46875 233.777344 97.316406 C 240.410156 91.21875 247.617188 84.496094 255.691406 79.925781 C 255.0625 81.082031 254.355469 82.195312 253.636719 83.265625 C 251.074219 87.085938 248.402344 90.835938 245.726562 94.589844 C 240.242188 102.292969 234.621094 109.894531 228.832031 117.378906 C 217.640625 131.863281 205.832031 145.878906 193.402344 159.316406 C 186.082031 167.234375 178.542969 174.949219 170.828125 182.480469 C 166.640625 186.570312 172.671875 192.835938 177.292969 189.496094 C 191.125 179.511719 207.15625 173.148438 224.300781 172.417969 C 240.199219 171.742188 258.15625 176.1875 271.21875 185.496094 C 277.628906 190.066406 282.410156 196.300781 283.34375 204.308594 C 284.234375 211.945312 282.238281 219.785156 278.109375 226.253906 C 269.273438 240.074219 253.480469 247.59375 238.828125 253.632812 C 207.367188 266.601562 172.128906 271.867188 138.398438 266.480469 C 129.414062 265.050781 120.507812 263.078125 111.925781 260.21875 C 116.8125 252.09375 121.773438 244.039062 126.789062 236.054688 Z M 126.789062 236.054688 "/></g><path style=" stroke:none;fill-rule:nonzero;fill:#000000;fill-opacity:1;" d="M 161.726562 314.3125 C 158.421875 314.3125 155.742188 316.996094 155.742188 320.300781 C 155.742188 323.605469 158.421875 326.285156 161.726562 326.285156 C 165.03125 326.285156 167.710938 323.605469 167.710938 320.300781 C 167.710938 316.996094 165.03125 314.3125 161.726562 314.3125 Z M 161.726562 314.3125 "/></g></svg>