<svg xmlns="http://www.w3.org/2000/svg" xmlns:xlink="http://www.w3.org/1999/xlink" width="500" zoomAndPan="magnify" viewBox="0 0 375 374.999991" height="500" preserveAspectRatio="xMidYMid meet" version="1.2"><metadata><ContainsAiGeneratedContent>Yes</ContainsAiGeneratedContent></metadata><defs><clipPath id="7792960af8"><path d="M 33.492188 21 L 337.242188 21 L 337.242188 351 L 33.492188 351 Z M 33.492188 21 "/></clipPath></defs><g id="fe642b9d55"><rect x="0" width="375" y="0" height="374.999991" style="fill:#ffffff;fill-opacity:1;stroke:none;"/><rect x="0" width="375" y="0" height="374.999991" style="fill:#000000;fill-opacity:1;stroke:none;"/><g clip-rule="nonzero" clip-path="url(#7792960af8)"><path style=" stroke:none;fill-rule:nonzero;fill:#ffffff;fill-opacity:1;" d="M 292.769531 65.566406 C 264.082031 36.878906 225.941406 21.078125 185.375 21.078125 C 144.808594 21.078125 106.664062 36.878906 77.980469 65.566406 C 49.292969 94.246094 33.492188 132.386719 33.492188 172.960938 C 33.492188 173.429688 33.59375 175.183594 33.640625 175.65625 C 35.675781 195.308594 42.601562 214.570312 54.355469 230.53125 C 66.375 246.851562 80.582031 257.511719 96.378906 264.726562 C 90.988281 274.929688 85.664062 285.167969 80.441406 295.453125 C 75.289062 305.59375 70.191406 315.777344 65.335938 326.070312 C 62.515625 331.996094 59.792969 337.964844 57.214844 343.996094 C 54.582031 350.164062 63.570312 353.652344 66.15625 347.675781 C 68.609375 342 71.148438 336.363281 73.757812 330.753906 C 83.648438 309.628906 94.855469 289.039062 106.710938 268.898438 C 114.101562 271.523438 121.789062 273.554688 129.71875 275.179688 C 166.074219 282.628906 204.875 277.511719 239.203125 263.960938 C 255.554688 257.507812 272.816406 249.265625 283.683594 234.902344 C 294.414062 220.726562 297.960938 199.324219 285.792969 184.796875 C 280.042969 177.933594 272.238281 173.351562 264.09375 169.863281 C 255.519531 166.191406 246.339844 163.695312 237.058594 162.722656 C 224.246094 161.378906 211.289062 162.972656 199.148438 167.082031 C 218.84375 145.886719 237.035156 123.351562 253.8125 99.726562 C 259.933594 91.109375 268.140625 81.851562 267.78125 70.65625 C 267.671875 67.140625 264.164062 65.808594 261.257812 66.730469 C 249.925781 70.308594 240.273438 78.65625 231.496094 86.433594 C 224.054688 93.027344 217.007812 100.070312 210.230469 107.332031 C 194.644531 124.027344 180.367188 141.929688 166.753906 160.253906 C 164.578125 163.179688 162.425781 166.125 160.28125 169.074219 C 164.691406 161.433594 169.128906 153.804688 173.609375 146.203125 C 182.636719 130.878906 191.621094 115.894531 200.929688 101.414062 C 202.132812 99.554688 202.703125 97.277344 201.347656 95.296875 C 200.164062 93.582031 197.539062 92.761719 195.625 93.742188 C 178.410156 102.605469 162.949219 114.925781 149.082031 128.347656 C 145.898438 131.429688 142.796875 134.605469 139.847656 137.914062 C 137.191406 140.898438 133.886719 144.183594 132.074219 147.785156 C 130.03125 151.855469 131.867188 156.714844 136.65625 157.261719 C 140.3125 157.683594 144.351562 156.035156 147.523438 154.398438 C 149.917969 153.15625 151.59375 150.527344 150.664062 147.785156 C 150.09375 146.101562 148.429688 144.871094 146.667969 144.6875 C 148.167969 142.984375 149.699219 141.320312 151.269531 139.683594 C 155.867188 134.882812 160.75 130.367188 165.808594 126.054688 C 171.074219 121.554688 176.546875 117.1875 182.25 113.167969 C 167.3125 137.332031 153.164062 162.003906 139.175781 186.714844 C 126.210938 209.625 113.453125 232.667969 101.058594 255.902344 C 88 250.039062 76.050781 241.527344 66.25 228.914062 C 59.941406 220.785156 54.425781 212.28125 50.671875 202.941406 C 49.007812 198.800781 47.605469 194.550781 46.460938 190.234375 C 45.324219 185.941406 44.820312 183.476562 44.214844 179.460938 C 43.953125 177.71875 43.59375 173.28125 43.59375 172.960938 C 43.59375 94.78125 107.195312 31.179688 185.375 31.179688 C 263.550781 31.179688 327.15625 94.78125 327.15625 172.960938 C 327.15625 251.136719 263.550781 314.734375 185.375 314.734375 C 182.589844 314.734375 180.324219 316.996094 180.324219 319.785156 C 180.324219 322.570312 182.589844 324.835938 185.375 324.835938 C 225.945312 324.835938 264.082031 309.035156 292.769531 280.347656 C 321.457031 251.660156 337.253906 213.519531 337.253906 172.953125 C 337.253906 132.386719 321.457031 94.246094 292.769531 65.566406 Z M 126.789062 235.980469 C 152.101562 195.675781 179.449219 156.066406 211.191406 120.511719 C 218.421875 112.410156 226.003906 104.4375 233.777344 97.289062 C 240.410156 91.191406 247.617188 84.472656 255.691406 79.902344 C 255.0625 81.0625 254.355469 82.171875 253.636719 83.242188 C 251.074219 87.0625 248.402344 90.8125 245.726562 94.5625 C 240.242188 102.261719 234.621094 109.863281 228.832031 117.34375 C 217.640625 131.824219 205.832031 145.835938 193.402344 159.269531 C 186.082031 167.183594 178.542969 174.898438 170.828125 182.425781 C 166.640625 186.511719 172.671875 192.777344 177.292969 189.4375 C 191.125 179.453125 207.15625 173.097656 224.300781 172.367188 C 240.199219 171.6875 258.15625 176.132812 271.21875 185.4375 C 277.628906 190.007812 282.410156 196.238281 283.34375 204.242188 C 284.234375 211.878906 282.238281 219.714844 278.109375 226.179688 C 269.273438 239.996094 253.480469 247.511719 238.828125 253.550781 C 207.367188 266.515625 172.128906 271.777344 138.398438 266.394531 C 129.414062 264.964844 120.507812 262.992188 111.925781 260.132812 C 116.8125 252.011719 121.773438 243.960938 126.789062 235.980469 Z M 126.789062 235.980469 "/></g><path style=" stroke:none;fill-rule:nonzero;fill:#ffffff;fill-opacity:1;" d="M 161.726562 314.210938 C 158.421875 314.210938 155.742188 316.890625 155.742188 320.195312 C 155.742188 323.496094 158.421875 326.175781 161.726562 326.175781 C 165.03125 326.175781 167.710938 323.496094 167.710938 320.195312 C 167.710938 316.890625 165.03125 314.210938 161.726562 314.210938 Z M 161.726562 314.210938 "/></g></svg>